<svg xmlns="http://www.w3.org/2000/svg" viewBox="0 0 400 320" width="400" height="320">
  <!-- floor -->
  <line x1="20" y1="280" x2="380" y2="280" stroke="#14383F" stroke-width="2"/>

  <!-- big box -->
  <path d="M80 140 L200 90 L320 140 L320 270 L200 320 L80 270 Z" fill="#FAF7F2" stroke="#14383F" stroke-width="2.4" stroke-linejoin="round"/>
  <path d="M80 140 L200 190 L320 140" fill="none" stroke="#14383F" stroke-width="2.4" stroke-linejoin="round"/>
  <path d="M200 190 L200 320" fill="none" stroke="#14383F" stroke-width="2.4"/>

  <!-- contents peeking -->
  <rect x="120" y="120" width="22" height="40" rx="2" fill="#B23A1F"/>
  <rect x="150" y="110" width="22" height="50" rx="2" fill="#E0B655"/>
  <rect x="180" y="100" width="22" height="60" rx="2" fill="#14383F"/>
  <rect x="220" y="106" width="22" height="54" rx="2" fill="#B23A1F" opacity="0.7"/>
  <rect x="260" y="118" width="22" height="42" rx="2" fill="#E0B655" opacity="0.8"/>

  <!-- magnifier -->
  <circle cx="280" cy="60" r="32" fill="#FAF7F2" stroke="#B23A1F" stroke-width="5"/>
  <line x1="304" y1="84" x2="334" y2="114" stroke="#B23A1F" stroke-width="6" stroke-linecap="round"/>
  <text x="280" y="68" text-anchor="middle" font-family="Inter, sans-serif" font-weight="700" font-size="22" fill="#14383F">aha</text>
</svg>
