<svg xmlns="http://www.w3.org/2000/svg" viewBox="0 0 460 380" width="460" height="380">
  <!-- shelf -->
  <rect x="40" y="70" width="380" height="14" rx="2" fill="#14383F"/>
  <rect x="40" y="200" width="380" height="14" rx="2" fill="#14383F"/>
  <rect x="40" y="330" width="380" height="14" rx="2" fill="#14383F"/>

  <!-- top shelf items -->
  <rect x="60" y="20" width="40" height="50" rx="3" fill="#B23A1F"/>
  <rect x="110" y="30" width="34" height="40" rx="3" fill="#E0B655"/>
  <rect x="154" y="14" width="44" height="56" rx="3" fill="#14383F"/>
  <rect x="208" y="36" width="30" height="34" rx="3" fill="#B23A1F" opacity="0.6"/>
  <rect x="248" y="22" width="36" height="48" rx="3" fill="#E0B655" opacity="0.7"/>
  <rect x="294" y="30" width="40" height="40" rx="3" fill="#14383F" opacity="0.7"/>
  <rect x="344" y="18" width="34" height="52" rx="3" fill="#B23A1F"/>

  <!-- middle shelf -->
  <rect x="60" y="150" width="48" height="50" rx="3" fill="#E0B655"/>
  <rect x="118" y="140" width="40" height="60" rx="3" fill="#14383F"/>
  <rect x="170" y="160" width="34" height="40" rx="3" fill="#B23A1F" opacity="0.7"/>
  <circle cx="240" cy="180" r="20" fill="#E0B655" opacity="0.6"/>
  <rect x="280" y="146" width="46" height="54" rx="3" fill="#B23A1F"/>
  <rect x="340" y="156" width="40" height="44" rx="3" fill="#14383F" opacity="0.6"/>

  <!-- bottom shelf -->
  <rect x="70" y="280" width="50" height="50" rx="3" fill="#14383F"/>
  <rect x="130" y="276" width="42" height="54" rx="3" fill="#B23A1F" opacity="0.5"/>
  <rect x="184" y="288" width="46" height="42" rx="3" fill="#E0B655"/>
  <rect x="244" y="276" width="40" height="54" rx="3" fill="#14383F" opacity="0.7"/>
  <rect x="296" y="290" width="48" height="40" rx="3" fill="#B23A1F"/>
  <rect x="354" y="280" width="38" height="50" rx="3" fill="#E0B655" opacity="0.7"/>

  <!-- magnifying glass overlay -->
  <circle cx="318" cy="180" r="58" fill="#FAF7F2" stroke="#B23A1F" stroke-width="6"/>
  <line x1="358" y1="220" x2="402" y2="264" stroke="#B23A1F" stroke-width="8" stroke-linecap="round"/>
  <circle cx="318" cy="180" r="58" fill="rgba(178,58,31,0.06)"/>
  <text x="318" y="188" text-anchor="middle" font-family="Inter, sans-serif" font-weight="700" font-size="32" fill="#B23A1F">!</text>
</svg>
